<?xml version="1.0" encoding="UTF-8"?>
<svg version="1.1" xmlns="http://www.w3.org/2000/svg" width="320" height="320">
<path d="M0 0 C0.78117188 0.19867676 1.56234375 0.39735352 2.3671875 0.60205078 C42.98957025 11.16102293 78.85906126 36.25053395 100.71875 72.4140625 C109.44939446 87.37810171 115.81716268 103.19795486 120 120 C120.48146484 121.88332031 120.48146484 121.88332031 120.97265625 123.8046875 C125.64133255 144.73045456 125.50280995 171.27373008 120 192 C119.69400879 193.18770996 119.69400879 193.18770996 119.38183594 194.39941406 C112.02404152 222.32047671 98.83244467 246.0323649 79 267 C77.78957031 268.30710937 77.78957031 268.30710937 76.5546875 269.640625 C55.77777293 291.34784918 28.8187228 304.5753962 0 312 C-1.0214209 312.27118652 -1.0214209 312.27118652 -2.06347656 312.54785156 C-23.25298457 317.90110245 -50.9065515 317.6002956 -72 312 C-73.18770996 311.69400879 -73.18770996 311.69400879 -74.39941406 311.38183594 C-102.82885982 303.89007175 -126.74909536 290.29807875 -148 270 C-148.86625 269.18660156 -149.7325 268.37320312 -150.625 267.53515625 C-176.17938249 242.89913438 -193.70080681 205.66488141 -195.16113281 170.07275391 C-195.18061589 168.70742403 -195.19440403 167.34200353 -195.203125 165.9765625 C-195.21018463 165.23731537 -195.21724426 164.49806824 -195.22451782 163.73641968 C-195.45153081 133.00015082 -195.45153081 133.00015082 -192 120 C-191.69400879 118.81229004 -191.69400879 118.81229004 -191.38183594 117.60058594 C-184.02404152 89.67952329 -170.83244467 65.9676351 -151 45 C-150.19304687 44.12859375 -149.38609375 43.2571875 -148.5546875 42.359375 C-127.77301083 20.64717549 -100.81387049 7.51590718 -72 0 C-71.31615234 -0.18224121 -70.63230469 -0.36448242 -69.92773438 -0.55224609 C-48.7272477 -5.90563532 -21.10519818 -5.58224467 0 0 Z " fill="#1C2254" transform="translate(196,4)"/>
<path d="M0 0 C0.66 0.33 1.32 0.66 2 1 C2.6667742 3.77577891 3.21095189 6.49527241 3.69140625 9.3046875 C3.841577 10.13960724 3.99174774 10.97452698 4.14646912 11.83474731 C4.62674806 14.51343466 5.09504812 17.19404717 5.5625 19.875 C6.03575325 22.54836463 6.51145998 25.22127059 6.98924255 27.89382935 C7.28621794 29.55934882 7.5801484 31.22541467 7.8707428 32.89205933 C8.42179033 36.01543038 8.99544217 38.98632651 10 42 C11.65 42.33 13.3 42.66 15 43 C15 43.99 15 44.98 15 46 C15.99 46 16.98 46 18 46 C18 45.01 18 44.02 18 43 C19.98 43 21.96 43 24 43 C24 43.66 24 44.32 24 45 C24.66 45 25.32 45 26 45 C26.14099121 44.16750732 26.28198242 43.33501465 26.42724609 42.47729492 C26.95455558 39.38448009 27.48828226 36.29286114 28.02636719 33.2019043 C28.25778282 31.86478221 28.4866473 30.52721595 28.71289062 29.18920898 C29.03882999 27.26430832 29.37475899 25.3411076 29.7109375 23.41796875 C30.00943604 21.68196411 30.00943604 21.68196411 30.31396484 19.91088867 C31 17 31 17 33 14 C35.30530922 22.19120511 36.77443027 30.33714984 37.90942383 38.76293945 C38.20867446 40.85217967 38.59664888 42.92833798 39 45 C39.99 45.495 39.99 45.495 41 46 C41 45.01 41 44.02 41 43 C42.98 43 44.96 43 47 43 C47 43.99 47 44.98 47 46 C47.99 46 48.98 46 50 46 C50 45.01 50 44.02 50 43 C51.98 42.34 53.96 41.68 56 41 C56.11069824 40.13310547 56.22139648 39.26621094 56.33544922 38.37304688 C56.75288034 35.12220972 57.17459618 31.87198575 57.59912109 28.62207031 C57.78114989 27.22189839 57.96152417 25.82151025 58.14013672 24.42089844 C59.06504584 17.17663818 59.98700771 10.03640549 62 3 C62.33 3 62.66 3 63 3 C65.52564727 32.81427899 67.80620885 62.63453242 69.76269531 92.49194336 C70.08588534 97.26963619 70.44151128 102.04481167 70.80200195 106.81982422 C71.09524506 111.52979307 71.31119108 116.28637041 71 121 C69.04084247 122.95915753 65.27281416 122.21815738 62.59375 122.25634766 C61.43015709 122.27825165 61.43015709 122.27825165 60.24305725 122.30059814 C53.06301175 122.42692183 45.88183785 122.49542687 38.70091248 122.54844093 C33.87676847 122.58414865 29.05429956 122.63729913 24.23095703 122.73388672 C19.56766999 122.82699188 14.90586312 122.87540817 10.24169922 122.89283371 C8.46823032 122.90688589 6.69481055 122.93643086 4.921875 122.98213577 C-10.6600254 123.36400577 -10.6600254 123.36400577 -16.61938477 118.17553711 C-20.9418319 112.76857094 -21.09849387 107.97787835 -20.65234375 101.27734375 C-20.59529518 99.59027565 -20.59529518 99.59027565 -20.53709412 97.86912537 C-20.4029048 94.24261496 -20.20306423 90.6232452 -20 87 C-19.89632525 84.57453177 -19.79622994 82.1489079 -19.69970703 79.72314453 C-19.44074664 73.57550983 -19.12054076 67.43302069 -18.77319336 61.28979492 C-18.55971417 57.51321687 -18.35619206 53.73619794 -18.15429688 49.95898438 C-18.02139541 47.51559436 -17.88795221 45.07223374 -17.75390625 42.62890625 C-17.6934462 41.52043839 -17.63298615 40.41197052 -17.57069397 39.26991272 C-17.18615004 32.49767223 -16.66138948 25.75085525 -16 19 C-15.67 19 -15.34 19 -15 19 C-14.49393169 27.11215109 -13.98956553 35.22440567 -13.48720646 43.33678722 C-13.25373759 47.10616641 -13.01974356 50.87551126 -12.78442383 54.64477539 C-11.73720721 71.4248143 -10.72144408 88.20203566 -10 105 C-9.92705215 104.18425003 -9.85410431 103.36850006 -9.77894592 102.5280304 C-9.09031763 94.83279592 -8.39907309 87.13780303 -7.7049036 79.4430666 C-7.34813416 75.48731846 -6.99236979 71.53148534 -6.63891602 67.57543945 C-6.29764852 63.75620873 -5.95372306 59.93722577 -5.60796928 56.11839867 C-5.47665556 54.66287906 -5.3462927 53.20727333 -5.21690559 51.75158119 C-5.03523796 49.70955685 -4.85016322 47.66786746 -4.66430664 45.6262207 C-4.5599379 44.46484085 -4.45556915 43.303461 -4.34803772 42.10688782 C-4.0394239 39.3519321 -3.55978696 36.71183478 -3 34 C-2.82443329 31.60616186 -2.68224176 29.20977901 -2.5625 26.8125 C-2.07172501 17.83227173 -1.0643062 8.92777237 0 0 Z " fill="#F9F9FA" transform="translate(138,39)"/>
<path d="M0 0 C9.36027044 0.14400416 16.67522259 3.53799089 23.625 9.75 C29.73180301 16.58842488 31.39454215 24.37885899 31.06640625 33.38671875 C29.98521495 41.01246625 25.66841383 46.30753028 19.79296875 51.05859375 C13.74150011 55.08200263 6.81895431 56.53570548 -0.375 55.5 C-4.14696526 53.8600151 -6.181033 51.94124778 -8.375 48.5 C-8.7492218 46.28610229 -8.7492218 46.28610229 -8.74731445 43.85498047 C-8.75354324 42.94078339 -8.75977203 42.0265863 -8.76618958 41.08468628 C-8.75697983 40.10541168 -8.74777008 39.12613708 -8.73828125 38.1171875 C-8.73877975 37.10657257 -8.73927826 36.09595764 -8.73979187 35.05471802 C-8.73745362 32.92138703 -8.72773979 30.78805317 -8.71118164 28.65478516 C-8.68753816 25.3802847 -8.69062899 22.10659565 -8.69726562 18.83203125 C-8.69169057 16.76041179 -8.68458177 14.68879577 -8.67578125 12.6171875 C-8.67669266 11.63386444 -8.67760406 10.65054138 -8.67854309 9.63742065 C-8.66901108 8.72952789 -8.65947906 7.82163513 -8.6496582 6.88623047 C-8.64505081 6.08555145 -8.64044342 5.28487244 -8.63569641 4.45993042 C-7.98436248 -0.43683502 -4.04370755 0.10711808 0 0 Z " fill="#1F2556" transform="translate(92.375,179.5)"/>
<path d="M0 0 C12.4644165 -0.71078328 26.36685778 0.87242293 36.27783203 9.31103516 C44.36755444 18.39973055 45.57803638 27.42508151 45.05712891 39.11230469 C44.42216508 46.80470465 40.23566334 51.31344011 34.69580078 56.29931641 C23.85980141 63.34724357 13.27189918 62.60036837 0.76611328 62.37353516 C-1.1635557 62.35344119 -3.09324486 62.33519554 -5.02294922 62.31884766 C-9.71876559 62.2750775 -14.41360074 62.20620984 -19.10888672 62.12353516 C-18.77888672 61.13353516 -18.44888672 60.14353516 -18.10888672 59.12353516 C-16.45684216 58.42141622 -14.78964903 57.75382102 -13.10888672 57.12353516 C-11.88904923 54.68386019 -11.98837145 53.12448991 -11.99536133 50.3984375 C-11.99543686 49.41757172 -11.99551239 48.43670593 -11.99559021 47.42611694 C-12.0007515 46.36462433 -12.00591278 45.30313171 -12.01123047 44.20947266 C-12.01264542 43.12469635 -12.01406036 42.03992004 -12.01551819 40.92227173 C-12.02112869 37.44766516 -12.033683 33.97312235 -12.04638672 30.49853516 C-12.05140036 28.14697358 -12.05596351 25.79541101 -12.06005859 23.44384766 C-12.07110154 17.67038548 -12.08837325 11.89697114 -12.10888672 6.12353516 C-16.56388672 5.13353516 -16.56388672 5.13353516 -21.10888672 4.12353516 C-21.10888672 3.46353516 -21.10888672 2.80353516 -21.10888672 2.12353516 C-16.40909924 -0.22635858 -9.65361636 0.45249941 -4.43261719 0.22753906 C-2.95461234 0.16138755 -1.47695263 0.08651748 0 0 Z M-3.10888672 6.12353516 C-3.43463482 8.13987237 -3.43463482 8.13987237 -3.4152832 10.47802734 C-3.4312706 11.37946472 -3.447258 12.2809021 -3.46372986 13.20965576 C-3.46909256 14.18670471 -3.47445526 15.16375366 -3.47998047 16.17041016 C-3.48900894 17.17436829 -3.49803741 18.17832642 -3.50733948 19.21270752 C-3.52186824 21.34115608 -3.53073521 23.46964958 -3.53442383 25.59814453 C-3.54628967 28.84696493 -3.59542459 32.09386768 -3.64599609 35.34228516 C-3.65546358 37.40998422 -3.66269706 39.47769495 -3.66748047 41.54541016 C-3.68701279 42.51436218 -3.7065451 43.48331421 -3.72666931 44.48162842 C-3.69699135 48.94497775 -3.59756117 52.13925304 -0.76147461 55.72216797 C3.1685312 59.27997166 6.3661465 59.42499082 11.43017578 59.32666016 C20.1842923 58.60409816 26.06743786 54.55287282 31.89111328 48.12353516 C36.80805423 41.88483589 36.77507203 34.77530309 35.89111328 27.12353516 C33.90639002 18.30392116 28.91109374 12.38295375 21.41845703 7.51806641 C15.03111415 4.15977273 2.65119583 0.36345261 -3.10888672 6.12353516 Z " fill="#FAF9FB" transform="translate(87.10888671875,175.87646484375)"/>
<path d="M0 0 C0 14.19 0 28.38 0 43 C8.21222562 39.09536958 8.21222562 39.09536958 15 34 C14.34 32.02 13.68 30.04 13 28 C18.94 28 24.88 28 31 28 C30 31 30 31 27.0859375 32.6484375 C25.85281924 33.23218491 24.61558088 33.8072846 23.375 34.375 C18.1911738 36.84326944 13.52058822 39.44810926 9 43 C12.65228459 51.869834 24.44450087 59.94838698 33 64 C33 64.66 33 65.32 33 66 C26.4 66 19.8 66 13 66 C13 65.34 13 64.68 13 64 C13.99 63.505 13.99 63.505 15 63 C13.39379474 58.97492612 10.54433659 56.28210481 7.5 53.3125 C7.00113281 52.81427734 6.50226563 52.31605469 5.98828125 51.80273438 C3.24846654 49.06240704 3.24846654 49.06240704 0 47 C0.08679142 49.46008778 0.19360955 51.91643517 0.3125 54.375 C0.33505859 55.07367188 0.35761719 55.77234375 0.38085938 56.4921875 C0.46984296 58.77288941 0.46984296 58.77288941 1 62 C1.99 62.66 2.98 63.32 4 64 C4 64.66 4 65.32 4 66 C-1.61 66 -7.22 66 -13 66 C-12 63 -12 63 -9.9375 61.8125 C-9.298125 61.544375 -8.65875 61.27625 -8 61 C-7.92413349 53.34625576 -7.87147783 45.69260793 -7.83520508 38.03857422 C-7.82008892 35.43306861 -7.79959568 32.82758856 -7.77368164 30.22216797 C-7.73742312 26.48398544 -7.72030202 22.74613835 -7.70703125 19.0078125 C-7.69154739 17.83695099 -7.67606354 16.66608948 -7.66011047 15.45974731 C-7.65988388 14.37877777 -7.65965729 13.29780823 -7.65942383 12.18408203 C-7.64943108 10.75178757 -7.64943108 10.75178757 -7.63923645 9.29055786 C-7.75828842 8.53467377 -7.87734039 7.77878967 -8 7 C-8.99 6.34 -9.98 5.68 -11 5 C-10 2 -10 2 -7.75 0.8125 C-5 0 -5 0 0 0 Z " fill="#FAFAFB" transform="translate(197,172)"/>
<path d="M0 0 C4.35680814 2.21950603 7.39707297 4.8545977 10 9 C10.8125 12.75 10.8125 12.75 11 16 C10 17 10 17 7.59155273 17.11352539 C6.54942627 17.10828857 5.5072998 17.10305176 4.43359375 17.09765625 C3.30888672 17.09443359 2.18417969 17.09121094 1.02539062 17.08789062 C-0.15861328 17.07951172 -1.34261719 17.07113281 -2.5625 17.0625 C-3.75037109 17.05798828 -4.93824219 17.05347656 -6.16210938 17.04882812 C-9.10812226 17.03699675 -12.05403681 17.02051287 -15 17 C-14.87870278 18.75975149 -14.74636037 20.51874393 -14.609375 22.27734375 C-14.53686523 23.25695068 -14.46435547 24.23655762 -14.38964844 25.24584961 C-13.85455906 29.02801956 -12.57654785 31.20873983 -10 34 C-6.09397224 36.32250299 -2.47715964 36.3997464 2 36 C4.74572728 34.52012037 4.74572728 34.52012037 7 33 C7.66 33.33 8.32 33.66 9 34 C7.80491401 37.71804531 5.53143047 39.44112336 2.12890625 41.23828125 C-3.09010846 43.10563514 -8.2287298 42.6232247 -13.375 40.8125 C-18.31598241 37.40086929 -21.43335812 32.80446451 -23 27 C-23.9783107 19.89251385 -22.73077556 14.11701837 -19 8 C-13.54632644 1.56746195 -8.44066272 -1.34215485 0 0 Z " fill="#F1F0F4" transform="translate(252,198)"/>
<path d="M0 0 C1.97909398 -0.02686553 3.95828971 -0.04633375 5.9375 -0.0625 C7.03964844 -0.07410156 8.14179688 -0.08570313 9.27734375 -0.09765625 C12 0 12 0 13 1 C13.15888092 3.28988781 13.25138073 5.58443441 13.31640625 7.87890625 C13.33718735 8.5655687 13.35796844 9.25223114 13.37937927 9.95970154 C13.44494143 12.16052935 13.50379015 14.36147975 13.5625 16.5625 C13.60567892 18.05144514 13.649293 19.54037773 13.69335938 21.02929688 C13.8006293 24.68606553 13.90187772 28.34297318 14 32 C17.85196726 34.11563191 20.57554576 34.38811002 25 34 C27.31279611 32.84360194 29.17409828 31.82590172 31 30 C31.15806531 28.07521187 31.251135 26.1450079 31.31640625 24.21484375 C31.35830078 23.04501953 31.40019531 21.87519531 31.44335938 20.66992188 C31.48267578 19.43822266 31.52199219 18.20652344 31.5625 16.9375 C31.62727539 15.08415039 31.62727539 15.08415039 31.69335938 13.19335938 C31.79984198 10.12902665 31.90185424 7.06460927 32 4 C29.03 3.505 29.03 3.505 26 3 C25.67 2.01 25.34 1.02 25 0 C29.62 0 34.24 0 39 0 C39.33 10.89 39.66 21.78 40 33 C41.98 33.66 43.96 34.32 46 35 C46 35.66 46 36.32 46 37 C41.71 37.66 37.42 38.32 33 39 C32.67 37.35 32.34 35.7 32 34 C31.38253906 34.433125 30.76507813 34.86625 30.12890625 35.3125 C25.13465372 38.59639208 21.13702329 40.95628353 15.046875 40.53515625 C11.42485366 39.58817739 9.56351745 37.69169332 7 35 C5.57732138 32.15464275 5.78028131 29.63781448 5.68359375 26.4609375 C5.62075195 24.50800781 5.62075195 24.50800781 5.55664062 22.515625 C5.51682701 21.13541955 5.47711478 19.75521117 5.4375 18.375 C5.39430593 16.98696585 5.35069135 15.59894472 5.30664062 14.2109375 C5.20028 10.80739744 5.09825286 7.40378222 5 4 C2.525 3.01 2.525 3.01 0 2 C0 1.34 0 0.68 0 0 Z " fill="#F7F7F9" transform="translate(135,200)"/>
<path d="M0 0 C2.88449279 2.60534833 4.36136313 4.16900069 5 8 C5.09312306 10.21984286 5.13069102 12.44226824 5.1328125 14.6640625 C5.13474609 16.59378906 5.13474609 16.59378906 5.13671875 18.5625 C5.13357666 19.56216797 5.13357666 19.56216797 5.13037109 20.58203125 C5.1249998 22.6250749 5.13033733 24.66790049 5.13671875 26.7109375 C5.13542969 27.99484375 5.13414062 29.27875 5.1328125 30.6015625 C5.13168457 31.78057129 5.13055664 32.95958008 5.12939453 34.17431641 C5 37 5 37 4 39 C2.88625 38.7215625 2.88625 38.7215625 1.75 38.4375 C-1.22840916 37.77947289 -1.22840916 37.77947289 -5 39 C-5 28.44 -5 17.88 -5 7 C-3.68 6.34 -2.36 5.68 -1 5 C-0.18828772 2.44480079 -0.18828772 2.44480079 0 0 Z " fill="#333764" transform="translate(158,103)"/>
<path d="M0 0 C1.65 0 3.3 0 5 0 C5 10.23 5 20.46 5 31 C3.68 31.33 2.36 31.66 1 32 C0 31 0 31 -0.11352539 28.04077148 C-0.10828857 26.74727783 -0.10305176 25.45378418 -0.09765625 24.12109375 C-0.0962413 23.4344313 -0.09482635 22.74776886 -0.09336853 22.04029846 C-0.08775479 19.83932199 -0.07520007 17.63844591 -0.0625 15.4375 C-0.05748676 13.94856917 -0.05292355 12.45963676 -0.04882812 10.97070312 C-0.03778093 7.31376925 -0.02050713 3.65689442 0 0 Z " fill="#40436D" transform="translate(184,110)"/>
<path d="M0 0 C2.4375 1.6875 2.4375 1.6875 4 4 C3.7 8.3 3.7 8.3 2 10 C-0.69654854 10.07319621 -3.36691458 10.09242537 -6.0625 10.0625 C-7.20041992 10.05573242 -7.20041992 10.05573242 -8.36132812 10.04882812 C-10.24091871 10.0370068 -12.12046899 10.01907078 -14 10 C-13.3046875 5.28125 -13.3046875 5.28125 -10.5625 2.75 C-6.75547137 0.15007801 -4.65068711 -0.46506871 0 0 Z " fill="#222859" transform="translate(252,201)"/>
<path d="M0 0 C1.32 0 2.64 0 4 0 C4 10.23 4 20.46 4 31 C2.68 31.33 1.36 31.66 0 32 C0 21.44 0 10.88 0 0 Z " fill="#222758" transform="translate(179,110)"/>
<path d="M0 0 C5.94 0 11.88 0 18 0 C17 3 17 3 14.12109375 4.6484375 C12.89741034 5.23279576 11.66925314 5.80784934 10.4375 6.375 C5.05055077 8.9504421 -0.00731512 11.70482798 -5 15 C-3.64978174 10.58110387 -1.73884332 8.65654657 2 6 C1.34 4.02 0.68 2.04 0 0 Z " fill="#F3F3F6" transform="translate(210,200)"/>
<path d="M0 0 C2.97 0.495 2.97 0.495 6 1 C5.67 2.32 5.34 3.64 5 5 C5.99 5.33 6.98 5.66 8 6 C8 8.64 8 11.28 8 14 C4.7 14 1.4 14 -2 14 C-2 11.03 -2 8.06 -2 5 C-1.34 4.67 -0.68 4.34 0 4 C0 2.68 0 1.36 0 0 Z " fill="#343865" transform="translate(181,143)"/>
<path d="M0 0 C0.99 0 1.98 0 3 0 C3 10.56 3 21.12 3 32 C2.01 32 1.02 32 0 32 C0 21.44 0 10.88 0 0 Z " fill="#1C2355" transform="translate(153,110)"/>
<path d="M0 0 C3.0625 0.1875 3.0625 0.1875 5.0625 2.1875 C5.0390625 4.3515625 5.0390625 4.3515625 4.6875 6.8125 C4.52121094 8.03839844 4.52121094 8.03839844 4.3515625 9.2890625 C4.20847656 10.22878906 4.20847656 10.22878906 4.0625 11.1875 C3.0725 10.8575 2.0825 10.5275 1.0625 10.1875 C1.0625 9.5275 1.0625 8.8675 1.0625 8.1875 C0.0725 8.1875 -0.9175 8.1875 -1.9375 8.1875 C-1.9375 9.1775 -1.9375 10.1675 -1.9375 11.1875 C-2.5975 11.1875 -3.2575 11.1875 -3.9375 11.1875 C-3.96438151 9.54175434 -3.98384123 7.89588587 -4 6.25 C-4.01160156 5.33347656 -4.02320313 4.41695312 -4.03515625 3.47265625 C-3.88736181 0.01426638 -3.51148462 0.22413732 0 0 Z " fill="#E4E3EA" transform="translate(176.9375,244.8125)"/>
<path d="M0 0 C1.37562854 1.28965176 2.70766393 2.62689293 4 4 C4 4.66 4 5.32 4 6 C2.02 6.99 2.02 6.99 0 8 C-0.33 17.9 -0.66 27.8 -1 38 C-1.33 38 -1.66 38 -2 38 C-2.04966189 33.55258682 -2.08584293 29.1053232 -2.10986328 24.65771484 C-2.11988339 23.14661851 -2.13350321 21.63554138 -2.15087891 20.12451172 C-2.17530392 17.94493858 -2.18652307 15.76562316 -2.1953125 13.5859375 C-2.20578613 12.2767334 -2.21625977 10.9675293 -2.22705078 9.61865234 C-2.00366763 6.0584534 -1.2935223 3.30765738 0 0 Z " fill="#4D4C73" transform="translate(158,103)"/>
<path d="M0 0 C1.67542976 0.28604898 3.34385343 0.61781233 5 1 C5 1.66 5 2.32 5 3 C4.01 3.33 3.02 3.66 2 4 C2.66 4.4125 3.32 4.825 4 5.25 C4.66 5.8275 5.32 6.405 6 7 C6 8.32 6 9.64 6 11 C4.02 11.33 2.04 11.66 0 12 C-0.33 11.01 -0.66 10.02 -1 9 C0.32 8.67 1.64 8.34 3 8 C1.68 7.34 0.36 6.68 -1 6 C-1.042721 4.33388095 -1.04063832 2.66617115 -1 1 C-0.67 0.67 -0.34 0.34 0 0 Z " fill="#E8E7ED" transform="translate(196,245)"/>
<path d="M0 0 C3 1 3 1 5 4 C5.33 2.68 5.66 1.36 6 0 C6.66 0 7.32 0 8 0 C8 3.3 8 6.6 8 10 C4.76524552 8.38262276 3.29427979 7.52370777 1 5 C1 6.65 1 8.3 1 10 C0.67 10 0.34 10 0 10 C0 6.7 0 3.4 0 0 Z " fill="#F4F4F7" transform="translate(95,246)"/>
<path d="M0 0 C0.66 0 1.32 0 2 0 C2 2.64 2 5.28 2 8 C2.99 8 3.98 8 5 8 C5.33 5.36 5.66 2.72 6 0 C6.66 0 7.32 0 8 0 C8.08096803 1.45742463 8.13917774 2.91612807 8.1875 4.375 C8.22230469 5.18710938 8.25710937 5.99921875 8.29296875 6.8359375 C8.19628906 7.55007812 8.09960938 8.26421875 8 9 C5 11 5 11 2.875 10.6875 C1 10 1 10 0 9 C-0.07179964 7.48071962 -0.08392007 5.95832518 -0.0625 4.4375 C-0.05347656 3.61121094 -0.04445313 2.78492188 -0.03515625 1.93359375 C-0.02355469 1.29550781 -0.01195313 0.65742188 0 0 Z " fill="#E1E1E8" transform="translate(73,246)"/>
<path d="M0 0 C2.31 0 4.62 0 7 0 C6.0409375 0.433125 6.0409375 0.433125 5.0625 0.875 C2.84793921 1.82823451 2.84793921 1.82823451 2 4 C2.99 4 3.98 4 5 4 C5 4.66 5 5.32 5 6 C4.01 6 3.02 6 2 6 C2 6.99 2 7.98 2 9 C3.65 9 5.3 9 7 9 C7 9.66 7 10.32 7 11 C5.00045254 11.04254356 2.99958364 11.04080783 1 11 C0 10 0 10 -0.09765625 7.71484375 C-0.08605469 6.79832031 -0.07445312 5.88179687 -0.0625 4.9375 C-0.05347656 4.01839844 -0.04445312 3.09929687 -0.03515625 2.15234375 C-0.02355469 1.44207031 -0.01195312 0.73179687 0 0 Z " fill="#E6E5EB" transform="translate(153,246)"/>
<path d="M0 0 C0.99 0.33 1.98 0.66 3 1 C3.33 2.65 3.66 4.3 4 6 C4.66 6 5.32 6 6 6 C6.33 4.02 6.66 2.04 7 0 C7.66 0 8.32 0 9 0 C8.01 3.3 7.02 6.6 6 10 C5.01 10 4.02 10 3 10 C2.01 6.7 1.02 3.4 0 0 Z " fill="#EBEBF0" transform="translate(131,246)"/>
<path d="M0 0 C1.32 0 2.64 0 4 0 C4 2.97 4 5.94 4 9 C2.68 9 1.36 9 0 9 C0 6.03 0 3.06 0 0 Z " fill="#2E3260" transform="translate(179,148)"/>
<path d="M0 0 C1.32 0 2.64 0 4 0 C4 2.97 4 5.94 4 9 C2.68 9 1.36 9 0 9 C0 6.03 0 3.06 0 0 Z " fill="#2A2E5D" transform="translate(158,148)"/>
<path d="M0 0 C1.32 0.33 2.64 0.66 4 1 C4 3.64 4 6.28 4 9 C2.68 9 1.36 9 0 9 C0 6.03 0 3.06 0 0 Z " fill="#323663" transform="translate(153,148)"/>
<path d="M0 0 C3 0 3 0 4.6875 1.5 C5.120625 1.995 5.55375 2.49 6 3 C6.33 2.01 6.66 1.02 7 0 C7.66 0.33 8.32 0.66 9 1 C8.01 3.97 7.02 6.94 6 10 C5.34 10 4.68 10 4 10 C1.125 3.375 1.125 3.375 0 0 Z " fill="#E5E4EB" transform="translate(250,246)"/>
<path d="M0 0 C2.97 0.495 2.97 0.495 6 1 C5.34 5.29 4.68 9.58 4 14 C3.67 14 3.34 14 3 14 C2.896875 12.741875 2.79375 11.48375 2.6875 10.1875 C2.35141192 7.39500343 2.19974124 6.25566879 0.4375 4 C-0.036875 3.67 -0.51125 3.34 -1 3 C-0.67 2.01 -0.34 1.02 0 0 Z " fill="#908FA9" transform="translate(181,143)"/>
<path d="M0 0 C2.875 -0.125 2.875 -0.125 6 0 C6.66 0.66 7.32 1.32 8 2 C7.625 4.125 7.625 4.125 7 6 C6.67 5.67 6.34 5.34 6 5 C4.33382885 4.95936168 2.66611905 4.957279 1 5 C1.33 4.01 1.66 3.02 2 2 C1.34 1.34 0.68 0.68 0 0 Z " fill="#8A8AA5" transform="translate(174,245)"/>
<path d="M0 0 C2.31 0 4.62 0 7 0 C6.01 0.495 6.01 0.495 5 1 C5 3.97 5 6.94 5 10 C4.34 10 3.68 10 3 10 C3 7.36 3 4.72 3 2 C2.01 1.67 1.02 1.34 0 1 C0 0.67 0 0.34 0 0 Z " fill="#F3F2F5" transform="translate(230,246)"/>
<path d="M0 0 C1.67542976 0.28604898 3.34385343 0.61781233 5 1 C5 1.66 5 2.32 5 3 C4.01 3.33 3.02 3.66 2 4 C1.67 4.99 1.34 5.98 1 7 C0.34 6.67 -0.32 6.34 -1 6 C-1.042721 4.33388095 -1.04063832 2.66617115 -1 1 C-0.67 0.67 -0.34 0.34 0 0 Z " fill="#D7D6E0" transform="translate(196,245)"/>
<path d="M0 0 C1.37562854 1.28965176 2.70766393 2.62689293 4 4 C4 4.66 4 5.32 4 6 C2.02 6.99 0.04 7.98 -2 9 C-1.34 6.03 -0.68 3.06 0 0 Z " fill="#8C8DA6" transform="translate(158,103)"/>
</svg>
